<svg width="60" height="60" viewBox="0 0 60 60" fill="none" xmlns="http://www.w3.org/2000/svg">
    <path d="M29.9379 15.3392C28.9966 15.1759 28.9556 13.574 30.1294 13.2653C30.4387 13.184 30.8062 13.2171 31.1257 13.217L32.7545 13.2201L35.6623 13.243C36.1983 13.3551 36.7217 13.3282 37.0834 13.8101C37.4298 14.2715 37.1763 14.9836 36.722 15.2688C36.4087 15.4653 36.0964 15.4452 35.7453 15.4478L34.6962 15.4542L31.7857 15.4486C31.2133 15.4485 30.4741 15.5766 29.9379 15.3392Z" fill="url(#paint0_linear_22_2708)"/>
    <path d="M35.6623 13.286L35.6702 13.2584C35.7857 12.7461 35.984 12.5135 36.3993 12.1889C38.1169 10.847 41.0103 10.5944 42.0514 12.8338C42.9575 14.3864 42.37 16.658 40.8118 17.5666L40.196 17.8958C40.1359 17.926 40.0296 17.9621 39.9961 18.024L39.9845 18.0721L38.5897 18.0665C38.3083 18.0685 37.9717 18.0329 37.6965 18.0745L37.6609 18.1103C36.9294 18.0837 35.9457 17.1909 35.4762 16.706C35.128 16.2992 34.8624 15.9793 34.6962 15.4614L35.7453 15.4479C36.0964 15.4452 36.4087 15.4654 36.722 15.2688C37.1763 14.9836 37.4298 14.2716 37.0834 13.8101C36.7217 13.3283 36.1983 13.3552 35.6623 13.286Z" fill="url(#paint1_linear_22_2708)"/>
    <path d="M14.2643 22.4194C14.584 22.3567 14.9109 22.3659 15.2326 22.365L27.2785 22.3662C29.0414 22.3776 30.275 22.8252 30.6568 24.7136C30.9246 26.0375 29.9319 27.3317 28.6969 27.7015L28.2512 27.8055L16.0149 27.8472C15.219 27.8464 14.4179 27.8645 13.6283 27.7497C12.7553 27.4901 12.0067 26.634 11.8885 25.7366C11.5897 24.2681 12.6721 22.4763 14.2643 22.4194Z" fill="url(#paint2_linear_22_2708)"/>
    <path d="M39.1356 41.9435C39.1325 41.352 39.0997 40.7327 39.1568 40.1398C39.4607 36.9832 42.5211 33.8392 45.7353 33.7474C45.9617 33.8179 46.2849 33.7706 46.5217 33.765C47.4487 33.743 48.3769 33.636 49.2693 33.9218C49.5247 34.0036 50.2222 34.4439 50.2298 34.7522C50.582 35.3826 50.4556 36.2956 50.1127 36.9142C52.2673 39.2256 52.3638 42.651 49.9593 44.8479C47.0067 47.5456 42.1293 46.0379 41.2235 41.9786L39.1356 41.9435Z" fill="#65B40E"/>
    <path d="M39.1356 41.9435C39.1325 41.352 39.0997 40.7327 39.1568 40.1398C39.4607 36.9832 42.5211 33.8392 45.7353 33.7474C45.9617 33.8179 46.2849 33.7706 46.5217 33.765C47.4487 33.743 48.3769 33.636 49.2693 33.9218C49.5247 34.0036 50.2222 34.4439 50.2298 34.7522C50.582 35.3826 50.4556 36.2956 50.1127 36.9142C49.7807 36.6131 49.4307 36.4075 49.0394 36.1964C47.4305 35.4871 45.6197 35.3677 44.0594 36.3101C41.948 37.5856 40.8767 39.5362 41.222 41.9786L39.1356 41.9435Z" fill="#003F38"/>
    <path d="M37.6965 18.1039C37.9717 18.0328 38.3083 18.0684 38.5896 18.0663L39.9845 18.0714L45.7353 33.7474C42.5212 33.8392 39.4607 36.9832 39.1568 40.1399C39.0997 40.7327 39.1325 41.352 39.1342 41.9481L21.9806 41.8813C21.8886 42.015 21.8717 42.1715 21.8074 42.3181C20.5914 45.088 17.5939 47.1071 14.5706 45.8689L14.5672 45.8645C12.8801 45.3113 11.6543 43.6253 11.471 41.8863C11.4303 41.5004 11.4577 41.0863 11.4585 40.6972C11.6503 40.5108 13.3902 40.6169 13.723 40.6166L17.4684 40.6147L23.713 40.5665C25.093 40.5554 26.4833 39.7217 26.8106 38.2998C26.8761 38.0156 26.8593 37.6851 26.9588 37.4156C27.3555 37.6883 28.5005 37.4984 29.053 37.5925C29.1659 37.6117 29.2761 37.6517 29.3913 37.651L29.449 37.6493C29.9215 37.7557 30.4271 37.7364 30.9068 37.7376L32.4166 37.7245C35.5447 37.5622 38.1136 35.2856 38.5896 32.1945C38.7442 31.1913 38.5596 30.1655 38.5118 29.1622L37.6965 18.1039Z" fill="#65B40E"/>
    <path d="M13.6282 27.7463C14.4179 27.8646 15.219 27.8465 16.0149 27.8473L28.2512 27.8374C28.1759 27.9622 28.1634 28.1533 28.1241 28.3222L27.4329 30.7696C27.1419 31.6947 26.4766 33.578 26.7937 34.4852C26.8898 34.7601 27.0917 34.9978 27.2699 35.2234L28.8053 37.0675C28.9936 37.2849 29.1899 37.5233 29.449 37.6576L29.3913 37.6511C29.2761 37.6519 29.1659 37.6118 29.053 37.5926C28.5005 37.4985 27.3555 37.6884 26.9588 37.4157C26.8593 37.6852 26.8761 38.0157 26.8106 38.3C26.4833 39.7219 25.093 40.5555 23.713 40.5667L17.4684 40.6148L13.723 40.6167C13.3902 40.617 11.6503 40.511 11.4607 40.6973C9.50877 41.0712 8.30194 39.2387 8.67052 37.4122C8.92761 36.1382 9.49377 34.9068 9.92746 33.6835C10.8229 31.1582 10.7624 30.3272 12.7939 28.4522C13.0622 28.2046 13.3237 27.9493 13.6282 27.7463Z" fill="#003F38"/>
    <defs>
        <linearGradient id="paint0_linear_22_2708" x1="29.2395" y1="14.3467" x2="37.2447" y2="14.3467" gradientUnits="userSpaceOnUse">
            <stop stop-color="#003F38"/>
            <stop offset="1" stop-color="#65B40E"/>
        </linearGradient>
        <linearGradient id="paint1_linear_22_2708" x1="34.6962" y1="14.6373" x2="42.4795" y2="14.6373" gradientUnits="userSpaceOnUse">
            <stop stop-color="#003F38"/>
            <stop offset="1" stop-color="#65B40E"/>
        </linearGradient>
        <linearGradient id="paint2_linear_22_2708" x1="11.8389" y1="25.1064" x2="30.7008" y2="25.1064" gradientUnits="userSpaceOnUse">
            <stop stop-color="#003F38"/>
            <stop offset="1" stop-color="#65B40E"/>
        </linearGradient>
    </defs>
</svg>
