<svg width="60" height="60" viewBox="0 0 60 60" fill="none" xmlns="http://www.w3.org/2000/svg">
    <path d="M34.6987 18.4011L46.3792 18.4005C48.6336 18.4056 50.6256 19.8228 50.8655 22.1777C50.9353 22.8632 50.888 23.596 50.8882 24.2861L50.8758 37.3974C50.8136 38.7445 50.1394 40.0579 48.9446 40.7349C47.6192 41.486 45.9915 41.2903 44.5295 41.2901L14.2859 41.2918C13.6 41.2919 12.8209 41.3686 12.1585 41.1885C10.4872 40.7338 9.39805 39.2691 9.22063 37.5812C9.16135 37.0174 9.20534 36.4064 9.20626 35.8381L9.20575 23.7693C9.20562 22.9596 9.14785 22.1571 9.37038 21.3702C9.84205 19.7022 11.3959 18.6144 13.0666 18.4224C13.4943 18.3733 13.9442 18.3991 14.3753 18.3992L24.2498 18.4012L34.6987 18.4011Z" fill="url(#paint0_linear_35_2781)"/>
    <path d="M13.4621 19.4366L45.4038 19.4365C47.4169 19.4381 49.2292 19.5327 49.756 21.9122C49.8417 22.2992 49.815 22.7028 49.8153 23.0972L49.8243 30.2874C49.8258 30.6209 49.8952 30.945 49.8993 31.2734L49.8999 35.3646C49.9083 37.5357 50.0259 39.7362 47.4168 40.3071L46.5474 40.4172L15.1271 40.4135C12.7203 40.4139 10.3225 40.251 10.209 37.2571L10.2069 22.7833C10.2265 20.7581 11.4083 19.5431 13.4621 19.4366Z" fill="#65B40E"/>
    <path d="M43.2313 25.3251L43.2959 25.3216C45.4895 25.2463 47.3534 27.3936 47.4022 29.4955C47.4577 31.8842 45.6891 33.9042 43.2564 33.9599C42.2157 33.9503 41.2351 33.6107 40.4444 32.9216C37.5141 30.3678 39.3293 25.5646 43.2313 25.3251Z" fill="#003F38"/>
    <path d="M16.6774 25.3248C20.1517 25.181 22.4706 29.4711 20.2629 32.2751C19.4627 33.2915 18.4452 33.8062 17.1751 33.9508C11.4543 34.0605 11.2483 25.732 16.6774 25.3248Z" fill="#003F38"/>
    <path d="M29.7871 22.6008C33.622 22.4772 36.9345 25.3186 37.1673 29.2002C37.4058 33.1732 34.3628 36.414 30.4175 36.6491C26.6338 36.8133 23.1433 33.9658 22.93 30.123C22.7053 26.0744 25.7865 22.8207 29.7871 22.6008Z" fill="#003F38"/>
    <path d="M29.8232 24.3507C30.5825 24.3194 30.7675 24.8414 30.7494 25.4709C33.1177 26.4211 32.7231 28.811 31.4528 28.4864C30.988 28.3675 31.1306 27.1381 30.3837 26.9906C29.349 26.7864 28.4687 27.6082 29.1469 28.4499C29.4922 28.8785 30.2717 28.7435 30.7607 28.8128L30.8057 28.8195C32.8823 29.1071 33.3554 32.3647 31.0044 33.2939L30.9653 33.3092C30.9767 33.7724 30.9581 34.1168 30.5123 34.3472C29.3821 34.649 29.4565 34.0513 29.2666 33.403L29.1797 33.3916C28.9112 33.3588 28.6732 33.1161 28.4906 32.9285C27.8379 32.2577 27.265 30.5294 28.6083 30.6457C29.1065 30.689 29.0399 31.3267 29.3266 31.6606C30.1923 32.6688 31.8299 31.2643 30.8571 30.4528L30.8227 30.4247C30.5837 30.2198 29.6086 30.3208 29.239 30.2615C26.9207 29.89 27.03 26.1714 28.9944 25.6206C29.751 25.4086 28.7922 24.5804 29.8232 24.3507Z" fill="#65B40E"/>
    <defs>
        <linearGradient id="paint0_linear_35_2781" x1="9.1897" y1="29.8528" x2="50.9037" y2="29.8528" gradientUnits="userSpaceOnUse">
            <stop stop-color="#003F38"/>
            <stop offset="1" stop-color="#65B40E"/>
        </linearGradient>
    </defs>
</svg>
