<svg width="960" height="182" viewBox="0 0 960 182" fill="none" xmlns="http://www.w3.org/2000/svg">
    <path d="M0.0234375 80.6H80.0234V0.599999H0.0234375V80.6ZM107.067 19H141.707V28.6H117.467V40.36H136.907V49.96H117.467V65.4H142.507V75H107.067V19ZM178.287 60.52L187.167 64.12C184.127 71.72 177.807 75.64 168.847 75.64C155.727 75.64 149.167 66.2 149.167 54.84C149.167 43.48 155.727 34.04 168.847 34.04C177.807 34.04 184.127 37.96 187.167 45.56L178.287 49.16C176.207 44.92 173.327 42.52 168.847 42.52C162.607 42.52 159.567 47.72 159.567 54.84C159.567 61.96 162.607 67.16 168.847 67.16C173.327 67.16 176.207 64.76 178.287 60.52ZM193.854 54.84C193.854 43.16 201.374 34.04 214.334 34.04C227.294 34.04 234.814 43.16 234.814 54.84C234.814 66.52 227.294 75.64 214.334 75.64C201.374 75.64 193.854 66.52 193.854 54.84ZM204.254 54.84C204.254 61.48 207.934 67.16 214.334 67.16C220.734 67.16 224.414 61.48 224.414 54.84C224.414 48.2 220.734 42.52 214.334 42.52C207.934 42.52 204.254 48.2 204.254 54.84ZM243.427 53.96V45.32H273.267V53.96H243.427ZM285.661 19H321.101V28.6H296.061V41.4H316.221V51H296.061V75H285.661V19ZM337.281 75H327.361V34.68H337.281V41.24C340.161 36.52 344.641 34.04 349.201 34.04C350.961 34.04 352.481 34.36 354.081 34.84L352.241 44.04C351.041 43.32 349.761 42.92 348.081 42.92C342.321 42.92 337.281 47.64 337.281 60.68V75ZM360.039 23.08C360.039 19.48 362.759 16.68 366.439 16.68C370.119 16.68 372.839 19.48 372.839 23.08C372.839 26.68 370.119 29.48 366.439 29.48C362.759 29.48 360.039 26.68 360.039 23.08ZM361.479 34.68H371.399V75H361.479V34.68ZM419.123 53.96V58.04H391.363C391.603 62.52 394.723 67.16 400.883 67.16C405.443 67.16 408.243 65.08 410.643 60.92L418.643 63.88C415.523 71 410.083 75.64 400.323 75.64C386.483 75.64 380.963 64.36 380.963 54.84C380.963 45.32 386.483 34.04 400.323 34.04C413.763 34.04 419.123 45.16 419.123 53.96ZM400.323 42.52C395.283 42.52 392.323 46.36 391.603 50.2H408.963C408.083 46.2 405.603 42.52 400.323 42.52ZM428.142 34.68H438.062V41.16C441.022 36.92 445.342 34.04 450.542 34.04C457.742 34.04 462.942 38.12 462.942 46.2V75H453.022V49.16C453.022 44.36 450.622 42.52 447.262 42.52C442.462 42.52 438.062 48.28 438.062 58.92V75H428.142V34.68ZM471.823 54.84C471.823 42.44 478.063 34.04 490.223 34.04C494.303 34.04 498.223 36.12 499.983 38.36V18.36H509.903V75H499.983V70.84C498.863 72.92 495.183 75.64 490.223 75.64C478.063 75.64 471.823 67.24 471.823 54.84ZM482.223 54.84C482.223 62.84 486.383 67.16 491.583 67.16C496.783 67.16 500.863 62.84 500.863 54.84C500.863 46.84 496.783 42.52 491.583 42.52C486.383 42.52 482.223 46.84 482.223 54.84ZM520.404 18.36H530.324V75H520.404V18.36ZM535.81 34.68H545.81L555.17 59.96L563.97 34.68H573.89L553.09 91.32H543.49L550.45 72.44L535.81 34.68ZM616.97 75.64C606.97 75.64 599.21 69.32 599.21 58.52C599.21 50.12 604.33 44.36 609.85 41.24C607.61 38.12 606.01 34.2 606.01 30.28C606.01 23.72 611.05 18.36 619.05 18.36C627.37 18.36 632.01 23.88 632.01 29.56C632.01 36.28 627.69 41.24 622.89 43.8L632.09 55.88C633.61 53 634.81 50.12 636.17 45.8L641.93 52.52C641.05 56.28 639.69 60.04 637.77 63.32L646.73 75H634.97L631.69 70.68C627.85 73.72 622.97 75.64 616.97 75.64ZM617.05 66.44C621.05 66.44 623.61 65.4 626.17 63.32L614.89 48.28C611.05 50.6 608.81 54.28 608.81 58.36C608.81 62.84 612.01 66.44 617.05 66.44ZM619.05 26.84C616.57 26.84 614.81 28.44 614.81 30.92C614.81 33.32 615.85 35.16 617.37 37.08C619.85 35.96 623.05 33.96 623.05 30.6C623.05 28.36 621.45 26.84 619.05 26.84ZM714.117 34.92C714.117 42.28 710.437 47.88 703.637 49.96L719.157 75H707.557L692.517 50.84H687.077V75H676.677V19H697.077C708.277 19 714.117 25.64 714.117 34.92ZM697.157 41.24C700.917 41.24 703.717 39.48 703.717 34.92C703.717 30.36 700.917 28.6 697.157 28.6H687.077V41.24H697.157ZM762.092 53.96V58.04H734.332C734.572 62.52 737.692 67.16 743.852 67.16C748.412 67.16 751.212 65.08 753.612 60.92L761.612 63.88C758.492 71 753.052 75.64 743.292 75.64C729.452 75.64 723.932 64.36 723.932 54.84C723.932 45.32 729.452 34.04 743.292 34.04C756.732 34.04 762.092 45.16 762.092 53.96ZM743.292 42.52C738.252 42.52 735.292 46.36 734.572 50.2H751.932C751.052 46.2 748.572 42.52 743.292 42.52ZM770.873 18.36H780.793V75H770.873V18.36ZM789.883 23.08C789.883 19.48 792.603 16.68 796.283 16.68C799.963 16.68 802.683 19.48 802.683 23.08C802.683 26.68 799.963 29.48 796.283 29.48C792.603 29.48 789.883 26.68 789.883 23.08ZM791.323 34.68H801.243V75H791.323V34.68ZM820.562 47.16L812.162 45.24C813.442 38.6 819.282 34.04 827.522 34.04C837.122 34.04 844.482 38.04 844.482 50.92V75H836.322L835.282 69.88C832.482 73.32 828.642 75.64 822.882 75.64C816.002 75.64 810.642 71.4 810.642 63.4C810.642 55.4 817.682 50.2 827.842 50.2H834.562V48.44C834.562 43.96 831.202 42.52 827.522 42.52C824.722 42.52 821.842 43.4 820.562 47.16ZM821.042 63.24C821.042 65.16 822.402 67.16 825.202 67.16C829.762 67.16 834.562 64.04 834.562 58.84V58.04H827.922C823.682 58.04 821.042 59.64 821.042 63.24ZM892.472 54.84C892.472 67.24 886.232 75.64 874.072 75.64C869.112 75.64 865.432 72.92 864.312 70.84V75H854.392V18.36H864.312V38.36C866.072 36.12 869.992 34.04 874.072 34.04C886.232 34.04 892.472 42.44 892.472 54.84ZM882.072 54.84C882.072 46.84 877.912 42.52 872.712 42.52C867.512 42.52 863.432 46.84 863.432 54.84C863.432 62.84 867.512 67.16 872.712 67.16C877.912 67.16 882.072 62.84 882.072 54.84ZM901.81 18.36H911.73V75H901.81V18.36ZM959.123 53.96V58.04H931.363C931.603 62.52 934.723 67.16 940.883 67.16C945.443 67.16 948.243 65.08 950.643 60.92L958.643 63.88C955.523 71 950.083 75.64 940.323 75.64C926.483 75.64 920.963 64.36 920.963 54.84C920.963 45.32 926.483 34.04 940.323 34.04C953.763 34.04 959.123 45.16 959.123 53.96ZM940.323 42.52C935.283 42.52 932.323 46.36 931.603 50.2H948.963C948.083 46.2 945.603 42.52 940.323 42.52ZM199.906 143.08H189.186V165H178.786V109H199.906C211.746 109 217.426 116.28 217.426 126.04C217.426 135.8 211.746 143.08 199.906 143.08ZM199.506 133.48C204.066 133.48 206.866 131.16 206.866 126.04C206.866 120.92 204.066 118.6 199.506 118.6H189.186V133.48H199.506ZM231.577 137.16L223.177 135.24C224.457 128.6 230.297 124.04 238.537 124.04C248.137 124.04 255.497 128.04 255.497 140.92V165H247.337L246.297 159.88C243.497 163.32 239.657 165.64 233.897 165.64C227.017 165.64 221.657 161.4 221.657 153.4C221.657 145.4 228.697 140.2 238.857 140.2H245.577V138.44C245.577 133.96 242.217 132.52 238.537 132.52C235.737 132.52 232.857 133.4 231.577 137.16ZM232.057 153.24C232.057 155.16 233.417 157.16 236.217 157.16C240.777 157.16 245.577 154.04 245.577 148.84V148.04H238.937C234.697 148.04 232.057 149.64 232.057 153.24ZM293.208 150.52L302.088 154.12C299.048 161.72 292.728 165.64 283.768 165.64C270.648 165.64 264.088 156.2 264.088 144.84C264.088 133.48 270.648 124.04 283.768 124.04C292.728 124.04 299.048 127.96 302.088 135.56L293.208 139.16C291.128 134.92 288.248 132.52 283.768 132.52C277.528 132.52 274.488 137.72 274.488 144.84C274.488 151.96 277.528 157.16 283.768 157.16C288.248 157.16 291.128 154.76 293.208 150.52ZM309.392 108.36H319.312V140.52L332.432 124.68H344.672L328.512 143.24L345.712 165H333.552L319.312 145.96V165H309.392V108.36ZM359.546 137.16L351.146 135.24C352.426 128.6 358.266 124.04 366.506 124.04C376.106 124.04 383.466 128.04 383.466 140.92V165H375.306L374.266 159.88C371.466 163.32 367.626 165.64 361.866 165.64C354.986 165.64 349.626 161.4 349.626 153.4C349.626 145.4 356.666 140.2 366.826 140.2H373.546V138.44C373.546 133.96 370.186 132.52 366.506 132.52C363.706 132.52 360.826 133.4 359.546 137.16ZM360.026 153.24C360.026 155.16 361.386 157.16 364.186 157.16C368.746 157.16 373.546 154.04 373.546 148.84V148.04H366.906C362.666 148.04 360.026 149.64 360.026 153.24ZM394.16 137.64C394.16 129.24 400.8 124.04 408.96 124.04C411.68 124.04 414.16 124.68 416.4 125.8L424 121.8L427.92 128.36L422.16 131.24C423.2 133.08 423.76 135.24 423.76 137.64C423.76 146.12 417.12 151.08 408.96 151.08C406.88 151.08 404.88 150.76 403.12 150.2C401.92 150.92 401.2 151.96 401.2 153.24C401.2 155.16 402.56 156.2 404.96 156.2H413.2C421.68 156.2 427.36 160.28 427.36 168.04C427.36 177.96 418 181.96 409.04 181.96C398.72 181.96 390.8 177.48 390.8 168.68C390.8 165.4 392 162.6 394.08 160.68C392.8 159.16 392 157 392 154.44C392 150.6 394 147.72 396.96 145.96C395.2 143.8 394.16 141 394.16 137.64ZM410.96 164.52H405.52C403.84 164.52 402.32 164.44 400.88 164.2C400.24 165.16 400 166.36 400 167.88C400 171.72 403.84 173.64 409.04 173.64C413.76 173.64 417.44 172.28 417.44 168.68C417.44 165.32 414.72 164.52 410.96 164.52ZM403.44 137.64C403.44 140.92 405.76 143.08 408.96 143.08C412.16 143.08 414.48 140.92 414.48 137.64C414.48 134.28 412.16 132.04 408.96 132.04C405.76 132.04 403.44 134.28 403.44 137.64ZM470.295 143.96V148.04H442.535C442.775 152.52 445.895 157.16 452.055 157.16C456.615 157.16 459.415 155.08 461.815 150.92L469.815 153.88C466.695 161 461.255 165.64 451.495 165.64C437.655 165.64 432.135 154.36 432.135 144.84C432.135 135.32 437.655 124.04 451.495 124.04C464.935 124.04 470.295 135.16 470.295 143.96ZM451.495 132.52C446.455 132.52 443.495 136.36 442.775 140.2H460.135C459.255 136.2 456.775 132.52 451.495 132.52ZM517.712 165H500.192V109H517.712C530.912 109 543.792 117.4 543.792 137C543.792 156.6 530.912 165 517.712 165ZM510.592 155.4H514.432C523.392 155.4 533.232 151.88 533.232 137C533.232 122.12 523.392 118.6 514.432 118.6H510.592V155.4ZM589.67 143.96V148.04H561.91C562.15 152.52 565.27 157.16 571.43 157.16C575.99 157.16 578.79 155.08 581.19 150.92L589.19 153.88C586.07 161 580.63 165.64 570.87 165.64C557.03 165.64 551.51 154.36 551.51 144.84C551.51 135.32 557.03 124.04 570.87 124.04C584.31 124.04 589.67 135.16 589.67 143.96ZM570.87 132.52C565.83 132.52 562.87 136.36 562.15 140.2H579.51C578.63 136.2 576.15 132.52 570.87 132.52ZM598.451 108.36H608.371V165H598.451V108.36ZM617.461 113.08C617.461 109.48 620.181 106.68 623.861 106.68C627.541 106.68 630.261 109.48 630.261 113.08C630.261 116.68 627.541 119.48 623.861 119.48C620.181 119.48 617.461 116.68 617.461 113.08ZM618.901 124.68H628.821V165H618.901V124.68ZM634.642 124.68H644.642L652.802 152.76L660.962 124.68H670.962L657.282 165H648.322L634.642 124.68ZM712.248 143.96V148.04H684.488C684.728 152.52 687.848 157.16 694.008 157.16C698.568 157.16 701.368 155.08 703.768 150.92L711.768 153.88C708.648 161 703.208 165.64 693.448 165.64C679.608 165.64 674.088 154.36 674.088 144.84C674.088 135.32 679.608 124.04 693.448 124.04C706.888 124.04 712.248 135.16 712.248 143.96ZM693.448 132.52C688.408 132.52 685.448 136.36 684.728 140.2H702.088C701.208 136.2 698.728 132.52 693.448 132.52ZM731.109 165H721.189V124.68H731.109V131.24C733.989 126.52 738.469 124.04 743.029 124.04C744.789 124.04 746.309 124.36 747.909 124.84L746.069 134.04C744.869 133.32 743.589 132.92 741.909 132.92C736.149 132.92 731.109 137.64 731.109 150.68V165ZM752.138 124.68H762.138L771.498 149.96L780.298 124.68H790.218L769.418 181.32H759.818L766.778 162.44L752.138 124.68Z" fill="url(#paint0_linear_22_32)"/>
    <defs>
        <linearGradient id="paint0_linear_22_32" x1="-34" y1="93" x2="996" y2="93" gradientUnits="userSpaceOnUse">
            <stop stop-color="#003F38"/>
            <stop offset="1" stop-color="#65B40E"/>
        </linearGradient>
    </defs>
</svg>
