<svg width="60" height="60" viewBox="0 0 60 60" fill="none" xmlns="http://www.w3.org/2000/svg">
    <path d="M37.3433 33.2543L38.7132 47.1093C38.7349 47.3715 38.7754 47.6378 38.7825 47.9004C38.8081 48.8677 36.2582 48.5504 35.7321 48.407C35.1347 48.2441 34.5714 48.0007 33.999 47.7695L26.1287 44.6253C25.021 44.1772 23.1632 43.6376 22.2593 42.9024C22.1978 42.8274 22.1415 42.7615 22.1165 42.6661L22.1079 42.6314C21.9549 42.0804 22.0946 41.3364 22.1571 40.7812L22.9745 33.4901C23.0729 33.5654 23.1884 33.8133 23.2663 33.925L26.6652 38.2323C27.0749 38.7123 27.4842 39.2261 27.9719 39.6309L28.4257 39.9718C29.1086 40.4081 30.0035 40.5472 30.7894 40.3646C32.0921 40.0619 33.0125 38.6963 33.8258 37.744L35.8041 35.3544C36.3462 34.6749 36.8821 33.9929 37.3433 33.2543Z" fill="#65B40E"/>
    <path d="M17.4123 26.4965C18.7838 26.4275 19.0093 27.0504 19.6517 28.1161L20.8676 30.1983C21.0873 30.5873 21.3983 31.0324 21.5024 31.4704L21.5109 31.5089C21.5973 31.873 21.5178 32.3512 21.4892 32.7218L20.7063 41.0357C20.4136 43.2139 20.1678 43.1564 18.3767 44.0323L15.6485 45.3662C14.6742 45.8384 13.7203 46.4148 12.7075 46.7932C10.0584 47.6524 8.09201 45.2774 8.95227 42.6644C9.2673 41.7076 9.72504 40.7771 10.1076 39.8438L11.6601 35.9794L14.2963 29.7295C14.9538 28.1149 15.2913 26.6912 17.4123 26.4965Z" fill="#65B40E"/>
    <path d="M42.7227 26.3801C44.4326 26.2655 45.058 27.7647 45.6796 29.0332L50.6628 38.5485C51.7873 40.9104 50.8777 42.8447 48.5822 43.9203L45.1341 45.5252L41.2187 47.3102C40.8852 47.444 40.5672 47.583 40.2125 47.6525L38.827 32.689C38.7198 31.9301 38.7187 31.1321 39.0999 30.4508L39.6318 29.5281C40.4851 28.0077 40.8074 26.5738 42.7227 26.3801Z" fill="#65B40E"/>
    <path d="M29.7969 8.48739C33.9149 8.17665 38.0864 10.905 39.9749 14.4574C42.2947 18.8209 41.3703 22.4259 39.2861 26.6841C37.4948 30.3439 35.186 33.6574 32.5475 36.7549L31.6747 37.7875C31.4146 38.0909 31.1249 38.4469 30.7631 38.631L30.7177 38.6532C30.5711 38.7259 30.4174 38.7547 30.2585 38.7882C29.6699 38.7972 29.3418 38.6905 28.8956 38.265C28.0905 37.4975 27.3915 36.5832 26.6938 35.7186L23.0116 30.5995C21.0713 27.5739 18.3782 22.7428 18.6938 18.9739C19.169 13.2985 24.0851 8.59087 29.7969 8.48739ZM29.7055 13.9578C24.4665 14.4451 22.5074 20.7773 26.5116 24.0268C27.5855 24.8982 28.9687 25.3088 30.3442 25.2315C32.9983 25.1004 35.3068 23.0457 35.6616 20.3956C36.1272 16.9182 33.3558 13.733 29.7536 13.9537L29.7055 13.9578Z" fill="#003F38"/>
    <path d="M33.3721 19.5431C33.5439 19.4588 34.0062 19.0773 34.1589 19.2927C34.1606 19.5815 34.1585 19.8588 34.1164 20.1456C33.9005 21.3204 33.359 22.3196 32.3579 23.0068C30.594 24.2175 27.8753 23.7448 26.6928 21.9404L26.6583 21.8824C26.6692 21.6885 26.4457 21.419 26.3691 21.2317L26.6885 21.0897C27.0515 20.9098 27.4671 20.9155 27.867 20.6909L29.6813 20.6392L30.4536 20.5578C30.9202 20.5152 31.4267 20.4737 31.8714 20.3218C32.2974 20.1762 32.6418 19.8807 33.0499 19.7193L33.1023 19.6994C33.185 19.6354 33.2795 19.591 33.3721 19.5431Z" fill="url(#paint0_linear_35_2759)"/>
    <path d="M26.2011 18.4006C26.2194 18.2849 26.2743 18.1679 26.3187 18.06C27.7293 14.6322 32.4017 14.5685 33.7889 17.9646C33.9753 18.3955 34.1099 18.8244 34.1589 19.2928C34.0062 19.0774 33.5439 19.4589 33.3721 19.5432C33.2796 19.5911 33.185 19.6354 33.1023 19.6995L33.0499 19.7194C32.6418 19.8808 32.2974 20.1763 31.8714 20.3219C31.4267 20.4738 30.9203 20.5153 30.4537 20.5579L29.6813 20.6393L27.867 20.691C27.4672 20.9156 27.0516 20.9099 26.6885 21.0898L26.3692 21.2317C26.4458 21.419 26.6693 21.6886 26.6583 21.8824C26.1828 21.2499 25.9744 20.4264 25.989 19.6458C25.89 19.3165 26.0927 18.7057 26.2011 18.4006Z" fill="#CDC700"/>
    <defs>
        <linearGradient id="paint0_linear_35_2759" x1="26.3691" y1="21.4524" x2="34.1593" y2="21.4524" gradientUnits="userSpaceOnUse">
            <stop stop-color="#003F38"/>
            <stop offset="1" stop-color="#65B40E"/>
        </linearGradient>
    </defs>
</svg>
