<svg width="60" height="60" viewBox="0 0 60 60" fill="none" xmlns="http://www.w3.org/2000/svg">
    <path d="M18.6192 13.4011L23.8713 13.3933C24.2492 13.3937 24.7169 13.3557 25.0827 13.4488C25.8959 13.6556 26.68 14.5771 26.415 15.4518L26.4003 15.498C26.3063 15.8021 26.1699 16.0971 26.0504 16.3922L24.5382 20.4699C24.5168 20.5247 24.4819 20.5611 24.4427 20.6038L19.5352 20.618L13.6853 20.617C12.9689 20.6139 12.3371 20.588 11.9121 19.9123L11.8865 19.8706C11.0941 18.5911 12.4207 17.5859 13.191 16.7423C14.5435 15.2608 15.8514 13.8215 17.9231 13.462L18.6192 13.4011Z" fill="#65B40E"/>
    <path d="M31.861 13.3991C32.2581 13.3716 32.6699 13.3928 33.0684 13.3931L37.2817 13.3968C40.2987 13.3961 41.3211 14.4475 43.3983 16.5682C44.2709 17.4592 45.6825 18.5155 44.8799 19.9053L44.8156 20.0156C44.4828 20.529 43.9632 20.649 43.396 20.6584L31.9293 20.6206L30.2945 16.2691C29.7569 14.7469 30.1584 13.6421 31.861 13.3991Z" fill="#65B40E"/>
    <path d="M37.1409 28.8412C39.0032 28.449 40.8303 28.4989 42.6508 29.1273C45.7561 30.2635 48.2031 32.8741 49.001 36.0933L49.2185 37.163C49.3033 37.5661 49.2855 38.0185 49.286 38.4301C49.2908 43.0337 46.2594 47.1389 41.6256 48.0006C36.0935 49.0293 31.132 45.6814 30.0629 40.1514L29.9938 39.7209C29.5013 35.03 31.9603 30.4604 36.5758 29.0134C36.7468 28.9599 36.9361 28.9279 37.1002 28.8588L37.1409 28.8412ZM42.354 34.0192C41.6121 34.1666 41.3487 34.6165 40.8838 35.1539L38.3449 38.1925C38.0759 38.5054 37.7902 38.9176 37.4652 39.1705C36.8338 38.5586 36.385 37.9076 35.4052 37.9205C34.3377 37.9345 33.4062 38.8579 33.6264 39.961L33.6334 40.0005C33.7313 40.5388 34.2186 40.9068 34.5965 41.2577L35.6064 42.1773C36.1803 42.6563 36.9687 43.4164 37.7674 43.351L37.9302 43.3344C38.5351 43.2717 38.9899 42.8986 39.3577 42.4418L43.2737 37.4435C43.5111 37.1651 43.7958 36.8999 43.9917 36.5908C44.7034 35.4682 44.0328 34.1363 42.7295 34.0183L42.354 34.0192Z" fill="#003F38"/>
    <path d="M29.9938 39.7209C29.361 39.904 28.6794 39.8194 28.0289 39.8197L21.133 39.8202C20.1347 39.8198 19.1121 39.8798 18.1269 39.6914C16.6076 39.4008 15.2496 38.1489 14.8174 36.6659C14.6406 36.0594 14.6138 35.4764 14.5852 34.8502L14.3956 29.2406L13.9466 21.8225L23.9319 21.7842C23.9391 21.937 23.8272 22.1942 23.7778 22.3435L23.3597 23.4844C22.9282 24.565 22.1447 25.9005 23.5666 26.5916L23.606 26.6104C23.8467 26.7291 24.1588 26.8076 24.4267 26.7578L24.4629 26.7507C25.4381 26.5708 26.3337 25.4041 26.987 24.7203C28.0929 23.5629 28.2874 23.6263 29.3505 24.759L30.5621 25.9515C30.8159 26.183 31.0627 26.426 31.3749 26.5786C32.3589 27.0597 33.7942 26.196 33.67 25.1185C33.6199 24.6838 33.3923 24.2398 33.2252 23.8385L32.8237 22.7891C32.7161 22.4872 32.663 22.1615 32.5522 21.8657L43.1851 21.8072L43.1671 23.5332L42.908 27.5369C42.895 27.8934 42.9214 28.3052 42.8481 28.6531L42.8383 28.6964C42.8124 28.8181 42.79 28.9081 42.7207 29.013L42.6508 29.1273C40.8303 28.4989 39.0032 28.449 37.1409 28.8412L37.1002 28.8588C36.9361 28.9279 36.7468 28.9599 36.5758 29.0134C31.9603 30.4604 29.5013 35.03 29.9938 39.7209Z" fill="#65B40E"/>
    <path d="M37.1409 28.8412L37.1412 28.8003C37.1844 28.7936 37.2117 28.7778 37.251 28.7696L37.3367 28.7513C37.3897 28.7313 37.4577 28.7262 37.5146 28.711L37.5985 28.6926C37.6724 28.6648 37.7568 28.6775 37.8369 28.6524L37.9542 28.6451L37.8854 28.4613L37.1134 28.6469C37.2349 28.5572 37.441 28.5214 37.587 28.4841C39.1236 28.0915 41.3072 28.2486 42.7207 29.013L42.6508 29.1273C40.8303 28.4989 39.0032 28.449 37.1409 28.8412Z" fill="#EBFEFF"/>
</svg>
