<svg width="1440" height="1024" viewBox="0 0 1440 1024" fill="none" xmlns="http://www.w3.org/2000/svg">
<mask id="mask0_70_250" style="mask-type:alpha" maskUnits="userSpaceOnUse" x="-362" y="-329" width="2143" height="1646">
<g clip-path="url(#clip0_70_250)">
<path d="M774.747 266.764C774.747 414.024 567.071 545.542 446.966 545.542C326.86 545.542 -423.546 29.0447 -423.546 -118.215C-423.546 -265.475 654.641 -62.7445 774.747 -62.7445C894.853 -62.7445 774.747 119.504 774.747 266.764Z" fill="url(#paint0_linear_70_250)"/>
<path d="M859.808 1011.28C859.808 1167.98 762.43 1295 642.308 1295C522.185 1295 -147 1258.48 -147 1101.78C-147 945.09 -144.793 534.022 -24.6704 534.022C292.631 714.202 549.705 450.168 759.823 550.59C938.222 635.853 822.836 895.791 859.808 1011.28Z" fill="url(#paint1_radial_70_250)"/>
<path d="M1106.54 351.324C1430.6 644.012 1280.91 496.924 1559.25 489.514C1602.92 497.925 1677.04 498.325 1624.23 432.634C1558.21 350.519 1579.49 292.521 1496.99 203.057C1414.48 113.593 1364.24 22.6994 1239.68 -119.591C1115.13 -261.881 1105.55 -144.587 965.127 -155.706C824.706 -166.825 888.752 -149.168 695.008 57.2893C501.264 263.746 782.473 58.6352 1106.54 351.324Z" fill="#D9D9D9"/>
<path d="M800.593 811.706C366.913 862.764 576.189 847.005 398.43 1061.32C363.341 1088.64 314.216 1144.15 398.43 1147.68C503.698 1152.09 533.325 1206.3 654.982 1203.15C776.639 1200 878.126 1222.06 1067.23 1222.06C1256.33 1222.06 1174.39 1137.6 1275.25 1039.26C1376.1 940.927 1320.63 977.488 1292.9 695.722C1265.16 413.956 1234.27 760.648 800.593 811.706Z" fill="#D9D9D9"/>
</g>
</mask>
<g mask="url(#mask0_70_250)">
<line x1="-15.0771" y1="656.64" x2="1496.5" y2="656.64" stroke="#353336" stroke-opacity="0.11" stroke-width="1.2607"/>
<line x1="-15.0771" y1="979.378" x2="1496.5" y2="979.378" stroke="#353336" stroke-opacity="0.11" stroke-width="1.2607"/>
<line x1="-15.0771" y1="333.902" x2="1496.5" y2="333.902" stroke="#353336" stroke-opacity="0.11" stroke-width="1.2607"/>
<line x1="-15.0771" y1="11.1614" x2="1496.5" y2="11.1614" stroke="#353336" stroke-opacity="0.11" stroke-width="1.2607"/>
<line x1="-15.0771" y1="495.27" x2="1496.5" y2="495.27" stroke="#353336" stroke-opacity="0.11" stroke-width="1.2607"/>
<line x1="-15.0771" y1="818.008" x2="1496.5" y2="818.008" stroke="#353336" stroke-opacity="0.11" stroke-width="1.2607"/>
<line x1="-15.0771" y1="172.532" x2="1496.5" y2="172.532" stroke="#353336" stroke-opacity="0.11" stroke-width="1.2607"/>
<line x1="-15.0771" y1="575.955" x2="1496.5" y2="575.955" stroke="#353336" stroke-opacity="0.11" stroke-width="1.2607"/>
<line x1="-15.0771" y1="898.693" x2="1496.5" y2="898.693" stroke="#353336" stroke-opacity="0.11" stroke-width="1.2607"/>
<line x1="-15.0771" y1="253.217" x2="1496.5" y2="253.217" stroke="#353336" stroke-opacity="0.11" stroke-width="1.2607"/>
<line x1="-15.0771" y1="414.585" x2="1496.5" y2="414.585" stroke="#353336" stroke-opacity="0.11" stroke-width="1.2607"/>
<line x1="-15.0771" y1="737.325" x2="1496.5" y2="737.325" stroke="#353336" stroke-opacity="0.11" stroke-width="1.2607"/>
<line x1="-15.0771" y1="91.8466" x2="1496.5" y2="91.8466" stroke="#353336" stroke-opacity="0.11" stroke-width="1.2607"/>
<line x1="32.1981" y1="-17.2029" x2="32.198" y2="1150.2" stroke="#353336" stroke-opacity="0.11" stroke-width="1.2607"/>
<line x1="677.679" y1="-17.2029" x2="677.679" y2="1150.2" stroke="#353336" stroke-opacity="0.11" stroke-width="1.2607"/>
<line x1="354.938" y1="-17.2031" x2="354.938" y2="1150.2" stroke="#353336" stroke-opacity="0.11" stroke-width="1.2607"/>
<line x1="1000.41" y1="-17.2029" x2="1000.41" y2="1150.2" stroke="#353336" stroke-opacity="0.11" stroke-width="1.2607"/>
<line x1="1323.16" y1="-17.2029" x2="1323.16" y2="1150.2" stroke="#353336" stroke-opacity="0.11" stroke-width="1.2607"/>
<line x1="193.568" y1="-17.2029" x2="193.568" y2="1150.2" stroke="#353336" stroke-opacity="0.11" stroke-width="1.2607"/>
<line x1="839.044" y1="-17.2029" x2="839.044" y2="1150.2" stroke="#353336" stroke-opacity="0.11" stroke-width="1.2607"/>
<line x1="516.309" y1="-17.2029" x2="516.309" y2="1150.2" stroke="#353336" stroke-opacity="0.11" stroke-width="1.2607"/>
<line x1="1161.79" y1="-17.2031" x2="1161.79" y2="1150.2" stroke="#353336" stroke-opacity="0.11" stroke-width="1.2607"/>
<line x1="112.885" y1="-17.2029" x2="112.885" y2="1150.2" stroke="#353336" stroke-opacity="0.11" stroke-width="1.2607"/>
<line x1="758.362" y1="-17.2031" x2="758.362" y2="1150.2" stroke="#353336" stroke-opacity="0.11" stroke-width="1.2607"/>
<line x1="435.621" y1="-17.2029" x2="435.621" y2="1150.2" stroke="#353336" stroke-opacity="0.11" stroke-width="1.2607"/>
<line x1="1081.1" y1="-17.2029" x2="1081.1" y2="1150.2" stroke="#353336" stroke-opacity="0.11" stroke-width="1.2607"/>
<line x1="1403.84" y1="-17.2029" x2="1403.84" y2="1150.2" stroke="#353336" stroke-opacity="0.11" stroke-width="1.2607"/>
<line x1="274.256" y1="-17.2029" x2="274.256" y2="1150.2" stroke="#353336" stroke-opacity="0.11" stroke-width="1.2607"/>
<line x1="919.732" y1="-17.2029" x2="919.732" y2="1150.2" stroke="#353336" stroke-opacity="0.11" stroke-width="1.2607"/>
<line x1="596.992" y1="-17.2029" x2="596.992" y2="1150.2" stroke="#353336" stroke-opacity="0.11" stroke-width="1.2607"/>
<line x1="1242.47" y1="-17.2029" x2="1242.47" y2="1150.2" stroke="#353336" stroke-opacity="0.11" stroke-width="1.2607"/>
</g>
<defs>
<linearGradient id="paint0_linear_70_250" x1="95.8613" y1="-44.4643" x2="550.343" y2="197.59" gradientUnits="userSpaceOnUse">
<stop stop-color="white"/>
<stop offset="1" stop-color="white" stop-opacity="0"/>
</linearGradient>
<radialGradient id="paint1_radial_70_250" cx="0" cy="0" r="1" gradientUnits="userSpaceOnUse" gradientTransform="translate(172.001 1017.94) rotate(-30.9349) scale(789.377 1398.97)">
<stop stop-color="white"/>
<stop offset="1" stop-color="white" stop-opacity="0"/>
</radialGradient>
<clipPath id="clip0_70_250">
<rect width="2143" height="1646" fill="white" transform="translate(-362 -329)"/>
</clipPath>
</defs>
</svg>
